<?xml version="1.0" standalone="no"?>
<!DOCTYPE svg PUBLIC "-//W3C//DTD SVG 20010904//EN"
 "http://www.w3.org/TR/2001/REC-SVG-20010904/DTD/svg10.dtd">
<svg version="1.0" xmlns="http://www.w3.org/2000/svg"
 width="2081.000000pt" height="2081.000000pt" viewBox="0 0 2081.000000 2081.000000"
 preserveAspectRatio="xMidYMid meet">
<metadata>
Created by potrace 1.11, written by Peter Selinger 2001-2013
</metadata>
<g transform="translate(0.000000,2081.000000) scale(0.100000,-0.100000)"
fill="#000000" stroke="none">
<path d="M10160 20754 c-1167 -48 -2118 -294 -3125 -808 -684 -349 -1275 -774
-1824 -1311 -963 -943 -1627 -2070 -1981 -3364 -241 -882 -315 -1803 -219
-2726 100 -968 383 -1904 819 -2715 273 -508 598 -974 996 -1430 147 -169 540
-562 702 -703 716 -624 1498 -1079 2407 -1402 230 -82 461 -148 963 -275 l442
-113 0 -529 0 -528 -2110 0 -2110 0 0 -985 0 -985 2115 0 2115 0 0 -1440 0
-1440 1015 0 1015 0 0 1420 c0 1291 1 1423 16 1445 l16 25 2119 0 2119 0 0
985 0 985 -2137 2 -2138 3 -3 469 c-2 459 -2 470 19 513 14 29 35 51 62 68 42
24 73 31 417 95 1014 189 1854 532 2703 1102 746 502 1338 1071 1902 1828 564
759 951 1590 1199 2580 251 997 296 1817 155 2804 -214 1503 -819 2806 -1845
3976 -388 443 -847 842 -1375 1197 -1120 752 -2282 1152 -3610 1243 -158 11
-699 20 -839 14z m780 -2048 c580 -62 1076 -187 1589 -403 1730 -726 2977
-2295 3270 -4113 133 -825 71 -1696 -179 -2509 -176 -573 -471 -1150 -836
-1636 -295 -394 -681 -779 -1079 -1077 -1103 -828 -2517 -1207 -3908 -1048
-1055 121 -2028 542 -2872 1244 -154 128 -501 475 -637 636 -662 786 -1080
1713 -1222 2712 -43 298 -51 432 -51 823 0 379 8 507 46 780 158 1112 698
2175 1524 3000 943 942 2158 1504 3470 1604 170 13 711 5 885 -13z"/>
</g>
</svg>
